<svg xmlns="http://www.w3.org/2000/svg" viewBox="0 0 100 100" width="100" height="100">
  <!-- QR code pattern - corners -->
  <!-- Top-left finder pattern -->
  <rect x="2" y="2" width="20" height="20" fill="#023020"/>
  <rect x="5" y="5" width="14" height="14" fill="white"/>
  <rect x="8" y="8" width="8" height="8" fill="#023020"/>

  <!-- Top-right finder pattern -->
  <rect x="78" y="2" width="20" height="20" fill="#023020"/>
  <rect x="81" y="5" width="14" height="14" fill="white"/>
  <rect x="84" y="8" width="8" height="8" fill="#023020"/>

  <!-- Bottom-left finder pattern -->
  <rect x="2" y="78" width="20" height="20" fill="#023020"/>
  <rect x="5" y="81" width="14" height="14" fill="white"/>
  <rect x="8" y="84" width="8" height="8" fill="#023020"/>

  <!-- Random QR data modules - top -->
  <rect x="26" y="2" width="4" height="4" fill="#023020"/>
  <rect x="34" y="2" width="4" height="4" fill="#023020"/>
  <rect x="42" y="2" width="4" height="4" fill="#023020"/>
  <rect x="54" y="2" width="4" height="4" fill="#023020"/>
  <rect x="66" y="2" width="4" height="4" fill="#023020"/>
  <rect x="26" y="10" width="4" height="4" fill="#023020"/>
  <rect x="38" y="10" width="4" height="4" fill="#023020"/>
  <rect x="50" y="10" width="4" height="4" fill="#023020"/>
  <rect x="62" y="10" width="4" height="4" fill="#023020"/>
  <rect x="30" y="18" width="4" height="4" fill="#023020"/>
  <rect x="46" y="18" width="4" height="4" fill="#023020"/>
  <rect x="58" y="18" width="4" height="4" fill="#023020"/>
  <rect x="70" y="18" width="4" height="4" fill="#023020"/>

  <!-- Random QR data modules - left side -->
  <rect x="2" y="26" width="4" height="4" fill="#023020"/>
  <rect x="10" y="30" width="4" height="4" fill="#023020"/>
  <rect x="2" y="38" width="4" height="4" fill="#023020"/>
  <rect x="18" y="34" width="4" height="4" fill="#023020"/>
  <rect x="2" y="50" width="4" height="4" fill="#023020"/>
  <rect x="10" y="54" width="4" height="4" fill="#023020"/>
  <rect x="2" y="62" width="4" height="4" fill="#023020"/>
  <rect x="18" y="58" width="4" height="4" fill="#023020"/>
  <rect x="10" y="70" width="4" height="4" fill="#023020"/>

  <!-- Random QR data modules - right side -->
  <rect x="94" y="26" width="4" height="4" fill="#023020"/>
  <rect x="86" y="30" width="4" height="4" fill="#023020"/>
  <rect x="94" y="42" width="4" height="4" fill="#023020"/>
  <rect x="78" y="34" width="4" height="4" fill="#023020"/>
  <rect x="94" y="54" width="4" height="4" fill="#023020"/>
  <rect x="86" y="50" width="4" height="4" fill="#023020"/>
  <rect x="94" y="66" width="4" height="4" fill="#023020"/>
  <rect x="78" y="62" width="4" height="4" fill="#023020"/>
  <rect x="86" y="70" width="4" height="4" fill="#023020"/>

  <!-- Random QR data modules - bottom -->
  <rect x="26" y="94" width="4" height="4" fill="#023020"/>
  <rect x="38" y="94" width="4" height="4" fill="#023020"/>
  <rect x="50" y="94" width="4" height="4" fill="#023020"/>
  <rect x="62" y="94" width="4" height="4" fill="#023020"/>
  <rect x="74" y="94" width="4" height="4" fill="#023020"/>
  <rect x="30" y="86" width="4" height="4" fill="#023020"/>
  <rect x="42" y="86" width="4" height="4" fill="#023020"/>
  <rect x="58" y="86" width="4" height="4" fill="#023020"/>
  <rect x="70" y="86" width="4" height="4" fill="#023020"/>
  <rect x="82" y="86" width="4" height="4" fill="#023020"/>
  <rect x="34" y="78" width="4" height="4" fill="#023020"/>
  <rect x="46" y="78" width="4" height="4" fill="#023020"/>
  <rect x="54" y="78" width="4" height="4" fill="#023020"/>
  <rect x="66" y="78" width="4" height="4" fill="#023020"/>

  <!-- Center white background for train -->
  <rect x="28" y="28" width="44" height="44" fill="white" rx="4"/>

  <!-- Train icon -->
  <g transform="translate(50, 50)">
    <!-- Train body -->
    <rect x="-16" y="-12" width="32" height="20" rx="3" fill="#023020"/>
    <!-- Train roof -->
    <rect x="-14" y="-16" width="28" height="6" rx="2" fill="#023020"/>
    <!-- Windows -->
    <rect x="-12" y="-8" width="8" height="6" rx="1" fill="white"/>
    <rect x="4" y="-8" width="8" height="6" rx="1" fill="white"/>
    <!-- Front light -->
    <rect x="-4" y="-14" width="8" height="3" rx="1" fill="#FFD700"/>
    <!-- Wheels -->
    <circle cx="-10" cy="10" r="4" fill="#023020"/>
    <circle cx="10" cy="10" r="4" fill="#023020"/>
    <circle cx="-10" cy="10" r="2" fill="white"/>
    <circle cx="10" cy="10" r="2" fill="white"/>
    <!-- Track line -->
    <line x1="-18" y1="14" x2="18" y2="14" stroke="#023020" stroke-width="2"/>
  </g>
</svg>
